<?xml version="1.0" standalone="no"?>
<!DOCTYPE svg PUBLIC "-//W3C//DTD SVG 20010904//EN"
 "http://www.w3.org/TR/2001/REC-SVG-20010904/DTD/svg10.dtd">
<svg version="1.0" xmlns="http://www.w3.org/2000/svg"
 width="2500.000000pt" height="2500.000000pt" viewBox="0 0 2500.000000 2500.000000"
 preserveAspectRatio="xMidYMid meet">

<g transform="translate(0.000000,2500.000000) scale(0.100000,-0.100000)"
fill="#000000" stroke="none">
<path d="M5480 10170 c22 -31 35 -36 25 -9 -3 8 -15 20 -27 28 -20 13 -20 12
2 -19z"/>
<path d="M5930 10146 c-15 -39 -12 -46 6 -13 9 16 13 31 10 34 -3 3 -10 -6
-16 -21z"/>
<path d="M5978 10153 c7 -3 16 -2 19 1 4 3 -2 6 -13 5 -11 0 -14 -3 -6 -6z"/>
<path d="M5852 10130 c0 -14 2 -19 5 -12 2 6 2 18 0 25 -3 6 -5 1 -5 -13z"/>
<path d="M5550 10109 c-11 -8 -12 -12 -2 -16 6 -2 12 -11 12 -19 0 -8 8 -14
18 -14 27 0 34 -11 19 -28 -10 -13 -9 -15 6 -9 10 4 25 7 33 7 10 0 6 9 -12
25 -20 19 -23 25 -10 25 9 0 16 7 16 15 0 17 -25 20 -35 5 -9 -15 -23 -12 -27
5 -2 11 -7 12 -18 4z"/>
<path d="M5666 10075 c-3 -8 -1 -15 4 -15 6 0 10 7 10 15 0 8 -2 15 -4 15 -2
0 -6 -7 -10 -15z"/>
<path d="M5794 10015 c4 -10 -1 -15 -17 -16 -21 -1 -20 -1 3 -8 17 -5 26 -3
28 6 2 7 14 13 28 13 13 0 24 5 24 10 0 6 -16 10 -36 10 -28 0 -35 -3 -30 -15z"/>
<path d="M5943 10023 c9 -2 17 -11 17 -19 0 -8 5 -14 10 -14 6 0 10 -6 10 -14
0 -7 7 -19 15 -26 13 -10 15 -9 15 9 0 12 -7 24 -16 28 -8 3 -13 11 -10 18 4
12 -25 26 -49 24 -5 -1 -2 -3 8 -6z"/>
<path d="M5130 10001 c0 -6 5 -13 10 -16 6 -3 10 1 10 9 0 9 -4 16 -10 16 -5
0 -10 -4 -10 -9z"/>
<path d="M5650 9993 c0 -15 -2 -16 -10 -3 -9 13 -10 13 -10 0 0 -8 14 -35 30
-60 34 -52 40 -48 9 6 -14 26 -17 40 -10 47 14 14 14 27 1 27 -5 0 -10 -8 -10
-17z"/>
<path d="M5798 9963 c14 -5 17 -53 3 -53 -14 0 -23 -32 -12 -43 7 -7 14 -1 21
17 9 24 13 26 25 16 9 -7 18 -11 20 -8 9 9 -7 68 -19 68 -6 0 -20 2 -31 4 -11
2 -14 1 -7 -1z"/>
<path d="M5931 9945 c-2 -32 -23 -51 -63 -59 -40 -7 -61 -25 -31 -27 10 -1 23
0 28 1 6 1 49 2 98 1 86 0 87 0 87 24 0 22 -5 25 -37 27 -21 0 -45 1 -53 2 -8
1 -17 12 -21 26 -6 20 -7 21 -8 5z"/>
<path d="M6125 9910 c4 -32 3 -50 -3 -50 -6 0 -13 12 -15 28 -2 15 -5 3 -6
-27 l-1 -53 -60 4 -60 4 0 -38 c0 -21 -4 -38 -10 -38 -5 0 -10 6 -10 13 0 8
-12 13 -30 12 -25 0 -30 -4 -31 -25 l-1 -25 -7 24 c-3 13 -15 25 -25 27 -12 2
-16 -2 -12 -13 4 -9 1 -13 -6 -11 -7 3 -15 13 -16 24 -4 20 -50 74 -64 74 -4
0 -8 -4 -8 -10 0 -5 7 -10 15 -10 8 0 15 -4 15 -10 0 -5 -4 -10 -9 -10 -17 0
-30 26 -24 48 3 12 1 22 -5 22 -5 0 -12 -8 -15 -19 -4 -18 66 -117 128 -179
14 -14 25 -29 25 -33 0 -5 7 -9 15 -9 8 0 14 -4 13 -8 -3 -11 83 -122 94 -122
5 0 8 -6 8 -14 0 -7 11 -24 24 -37 13 -13 40 -46 61 -74 21 -27 52 -64 69 -81
17 -17 38 -42 46 -56 8 -15 47 -60 85 -100 78 -83 105 -115 105 -125 0 -10
104 -118 113 -115 4 1 7 -4 7 -11 0 -6 23 -37 50 -67 27 -30 50 -58 50 -61 0
-3 15 -21 33 -40 17 -19 44 -48 59 -64 15 -17 32 -34 38 -40 21 -20 70 -75 70
-79 0 -2 31 -36 70 -76 38 -39 87 -92 110 -117 l40 -46 23 20 c51 47 127 59
183 30 48 -25 148 -133 141 -151 -14 -37 -38 -29 -100 32 -70 70 -106 83 -156
58 -17 -9 -31 -24 -31 -32 0 -13 398 -418 476 -485 26 -22 54 -57 54 -68 0 -5
11 -12 25 -15 14 -4 25 -10 25 -15 0 -14 37 -51 44 -44 3 3 6 -3 6 -14 0 -15
8 -22 29 -26 24 -5 28 -10 24 -31 -3 -15 -11 -26 -19 -26 -7 0 -15 -4 -19 -10
-7 -11 30 -50 48 -49 10 0 10 2 0 6 -16 6 -17 40 -1 57 10 10 16 8 34 -11 12
-13 26 -23 33 -23 6 0 17 -11 23 -25 6 -14 15 -25 20 -25 5 0 6 -5 2 -12 -5
-7 -2 -9 8 -5 11 4 20 -3 28 -24 15 -35 4 -52 -15 -26 -10 13 -14 15 -18 5 -3
-8 -6 -5 -6 6 -1 20 -1 20 -15 0 -13 -17 -15 -17 -21 -2 -4 9 -13 14 -21 11
-8 -3 -14 -1 -14 5 0 5 -9 12 -20 15 -11 3 -17 1 -14 -4 3 -6 1 -16 -6 -24 -7
-9 -8 -15 0 -20 5 -3 10 1 10 9 0 9 7 16 15 16 8 0 15 -5 15 -11 0 -21 30 -40
52 -34 18 5 20 4 8 -4 -8 -6 -10 -11 -4 -11 7 0 14 -9 17 -21 4 -16 12 -20 38
-17 37 3 47 19 24 41 -21 21 -19 24 14 23 16 -1 27 -4 25 -8 -7 -11 29 -48 47
-48 8 0 27 -12 41 -27 14 -16 37 -37 51 -48 15 -11 26 -23 27 -27 1 -16 -41
-18 -69 -4 -34 18 -55 21 -46 7 3 -5 1 -12 -4 -15 -5 -3 -7 -15 -4 -25 3 -10
0 -22 -6 -25 -20 -13 -11 -21 24 -21 19 0 35 4 35 8 0 5 5 5 10 2 6 -3 10 -27
10 -53 0 -53 13 -66 85 -87 28 -9 41 -18 43 -33 2 -12 12 -24 23 -27 10 -4 19
-10 19 -13 0 -4 14 -23 32 -42 18 -19 31 -40 30 -46 -3 -16 29 -42 58 -46 29
-4 43 -48 15 -48 -12 0 -16 -8 -13 -32 2 -27 8 -34 28 -36 49 -6 57 -12 36
-27 -18 -14 -18 -15 8 -26 14 -7 26 -19 26 -27 0 -9 3 -12 7 -9 3 4 12 2 20
-4 9 -9 13 -8 13 0 0 6 5 11 10 11 6 0 10 -11 10 -25 0 -17 6 -25 18 -25 17
-1 64 -30 47 -30 -5 0 2 -11 15 -25 12 -13 26 -22 31 -20 4 3 11 0 15 -6 3 -6
2 -14 -4 -18 -7 -4 1 -14 18 -26 16 -11 31 -29 32 -40 2 -14 12 -20 32 -22 16
-1 33 -8 37 -15 11 -18 2 -23 -16 -8 -31 26 -25 1 8 -33 27 -28 37 -33 47 -24
10 10 11 7 5 -11 -5 -19 -2 -25 14 -29 12 -3 21 -10 21 -15 0 -5 4 -7 9 -4 4
3 16 -3 26 -14 10 -11 24 -20 31 -20 7 0 14 -4 16 -9 4 -11 96 -84 128 -101
16 -9 25 -9 28 -2 2 6 10 8 18 5 13 -5 13 -7 3 -14 -10 -6 -6 -11 14 -18 15
-6 27 -17 27 -25 0 -19 59 -68 72 -60 7 4 8 2 4 -4 -7 -12 22 -31 42 -26 7 1
8 0 2 -3 -5 -2 -8 -9 -4 -14 3 -5 0 -9 -7 -9 -7 0 -10 -3 -7 -6 4 -3 16 0 28
6 12 7 20 8 16 2 -3 -5 1 -15 10 -22 8 -7 13 -19 10 -25 -3 -8 2 -11 14 -8 13
4 25 -4 38 -26 10 -17 21 -28 25 -25 3 3 16 -3 28 -15 13 -12 29 -21 36 -21 8
0 11 -4 8 -10 -3 -5 2 -10 12 -10 25 0 43 -19 36 -36 -4 -10 0 -12 11 -8 11 4
16 2 14 -7 -2 -9 4 -13 15 -11 9 2 16 -2 15 -9 -3 -11 143 -131 150 -124 2 2
19 -13 39 -33 20 -21 29 -28 22 -17 -12 17 -10 17 19 -4 17 -12 32 -27 32 -32
0 -5 9 -9 20 -9 10 0 24 -8 29 -17 6 -10 11 -14 11 -10 0 5 18 -10 40 -33 23
-24 44 -38 51 -34 8 4 9 3 5 -4 -4 -7 3 -17 19 -24 24 -11 30 -8 98 60 l73 72
21 -22 22 -22 -64 -67 c-60 -62 -77 -89 -57 -89 5 0 35 -20 68 -45 32 -24 64
-45 70 -45 6 0 19 9 29 20 10 11 22 20 26 20 14 0 20 -37 9 -65 -9 -25 -9 -26
5 -15 8 7 15 28 15 47 0 29 -10 46 -67 104 -61 64 -65 71 -55 94 6 14 15 25
20 25 11 0 138 -131 151 -157 15 -30 14 -109 -3 -141 l-14 -28 86 -62 c48 -34
112 -81 143 -105 184 -139 405 -299 562 -407 49 -33 103 -71 120 -83 18 -13
93 -67 167 -120 149 -107 206 -154 199 -162 -7 -6 -89 54 -89 66 0 5 -6 9 -13
9 -6 0 -46 25 -87 56 -41 31 -111 80 -155 110 -274 187 -363 248 -467 326 -64
48 -131 94 -148 103 -36 19 -167 112 -250 178 -30 24 -80 60 -110 80 -52 34
-57 36 -92 25 -34 -10 -41 -9 -78 16 -22 14 -48 33 -58 41 -9 8 -27 22 -40 32
-18 14 -23 29 -24 61 0 40 -3 44 -62 83 -87 58 -394 283 -561 411 -38 29 -146
112 -240 183 -93 70 -201 154 -239 184 -37 31 -102 82 -143 114 -120 93 -523
432 -543 457 -5 6 -139 108 -184 140 -19 14 -20 13 -7 -2 7 -10 10 -25 7 -34
-8 -21 4 -40 14 -23 7 10 15 9 40 -3 39 -19 140 -107 140 -122 0 -13 45 -67
57 -68 34 -4 42 -12 37 -33 -6 -26 24 -44 38 -23 6 10 8 10 8 0 0 -8 9 -27 21
-44 24 -33 20 -47 -8 -24 -10 8 -70 57 -134 108 -181 146 -197 160 -253 214
-28 28 -71 63 -94 78 -40 25 -54 46 -31 46 13 0 87 -55 107 -79 7 -9 16 -16
20 -16 4 0 6 -3 5 -7 -2 -5 2 -8 7 -8 13 0 13 13 -2 45 -6 14 -17 25 -25 25
-7 0 -13 5 -13 11 0 12 -31 41 -300 278 -107 95 -202 176 -211 179 -9 4 -73
61 -142 126 -69 65 -133 124 -143 129 -19 10 -83 67 -135 120 -15 15 -32 27
-39 27 -6 0 -9 4 -6 9 7 10 -40 52 -77 69 -15 6 -34 26 -41 42 -7 17 -15 28
-18 25 -3 -3 -15 6 -27 21 -12 15 -24 24 -27 21 -13 -13 299 -327 325 -327 10
0 21 -7 25 -15 3 -8 14 -15 24 -15 19 0 82 -58 82 -76 0 -14 23 -40 112 -132
39 -40 68 -76 64 -79 -4 -4 -10 -3 -14 2 -12 17 -175 168 -232 215 -30 25 -61
53 -69 64 -9 10 -31 33 -50 50 -19 17 -59 55 -89 83 -31 29 -58 50 -61 47 -3
-3 26 -36 66 -73 443 -410 530 -489 689 -627 374 -324 533 -459 623 -529 21
-16 159 -127 307 -246 316 -253 431 -342 814 -629 157 -117 319 -239 360 -270
41 -31 138 -101 214 -155 77 -54 146 -104 155 -111 30 -25 296 -220 431 -316
74 -52 230 -163 345 -245 256 -182 301 -214 390 -275 39 -26 122 -85 185 -131
63 -45 198 -143 300 -216 102 -73 226 -166 275 -206 127 -101 268 -194 323
-211 26 -8 85 -16 132 -18 47 -3 70 -2 51 1 -34 4 -79 28 -93 48 -17 23 -7 34
30 33 62 -1 79 9 86 48 4 19 4 39 1 44 -3 6 -8 20 -10 32 -3 13 -9 32 -14 43
-5 11 -14 38 -19 60 -6 22 -26 87 -44 145 -17 58 -33 112 -35 120 -7 48 -37
140 -45 140 -5 0 -4 10 3 21 7 14 7 19 1 15 -10 -6 -32 51 -32 84 0 8 -16 46
-34 83 -19 38 -32 76 -29 85 3 12 2 13 -4 5 -6 -8 -13 -2 -22 20 -32 76 -44
97 -51 92 -5 -3 -14 8 -22 25 -7 16 -17 30 -21 30 -5 0 -8 12 -7 28 3 44 1 54
-11 46 -7 -4 -10 -1 -7 7 5 14 -29 45 -73 68 -21 10 -27 21 -27 46 0 42 -8 55
-34 55 -24 0 -71 46 -63 61 4 5 -8 21 -25 35 -17 15 -29 31 -27 37 2 6 -11 24
-28 42 -17 17 -30 36 -27 43 2 7 1 20 -2 28 -5 14 -9 14 -22 3 -13 -11 -18
-10 -32 8 -10 11 -32 26 -50 34 -28 12 -33 18 -28 39 6 31 -14 60 -41 60 -14
0 -25 11 -34 32 -11 27 -14 29 -20 12 -6 -17 -8 -16 -14 9 -4 15 -13 27 -21
27 -13 0 -48 65 -65 120 -6 22 -7 20 -8 -14 -1 -38 -1 -39 -21 -21 -10 9 -18
27 -17 38 1 12 -2 22 -8 22 -5 0 -19 6 -30 13 -19 13 -19 13 2 7 17 -5 14 2
-18 35 -21 22 -44 39 -51 38 -6 -2 -18 10 -26 27 -14 27 -16 28 -23 10 -6 -19
-7 -19 -14 -2 -6 15 -10 16 -16 5 -7 -10 -9 -10 -9 0 0 6 -7 12 -15 12 -24 0
-17 17 10 24 14 4 23 11 20 16 -4 6 -10 8 -15 5 -4 -3 -10 2 -14 10 -3 8 -14
15 -23 15 -10 0 -28 7 -41 15 -12 9 -27 15 -34 14 -41 -5 -48 1 -48 43 0 39
-1 40 -18 25 -21 -19 -32 -22 -32 -7 0 22 -37 51 -55 44 -14 -6 -17 -4 -13 8
12 29 -8 40 -75 41 -48 2 -73 7 -94 23 -42 30 -73 99 -73 161 0 55 -9 67 -50
69 -14 1 -31 2 -37 3 -7 0 -13 12 -13 25 0 13 6 27 13 30 6 3 1 4 -13 3 -17
-1 -26 -9 -28 -24 -2 -13 -7 -23 -12 -23 -12 0 -20 28 -14 45 4 8 1 22 -6 30
-9 11 -9 15 -1 15 7 0 9 5 6 11 -4 5 -12 8 -18 6 -7 -2 -23 4 -36 14 -13 11
-34 19 -47 19 -19 0 -24 5 -24 25 0 20 -5 25 -25 25 -19 0 -25 5 -25 23 0 12
-9 28 -20 35 -15 9 -20 9 -20 0 0 -6 -11 -1 -25 12 -14 13 -25 29 -25 37 0 7
-11 13 -25 13 -26 0 -35 15 -13 22 21 7 -3 28 -32 28 -15 0 -31 6 -34 13 -5
10 -7 10 -12 0 -7 -16 -34 -17 -34 -1 0 7 -12 25 -27 41 -19 20 -24 31 -16 34
10 4 9 8 -1 19 -20 19 -26 18 -26 -7 0 -11 -6 -26 -13 -33 -11 -11 -13 -5 -13
33 1 43 -1 46 -24 47 -43 0 -53 12 -35 40 8 13 11 24 5 24 -5 0 -10 -4 -10
-10 0 -5 -7 -10 -15 -10 -8 0 -15 5 -15 10 0 6 -11 10 -24 10 -19 0 -24 5 -23
20 2 25 14 26 20 3 4 -17 5 -17 6 0 1 22 -34 57 -58 57 -29 0 -95 41 -81 50 8
5 7 9 -4 13 -9 4 -16 2 -16 -3 0 -16 -26 -11 -42 8 -9 9 -19 32 -23 50 -5 25
-12 32 -31 32 -19 0 -24 5 -24 25 0 15 -6 25 -14 25 -8 0 -17 6 -20 13 -3 6
-4 3 -1 -9 7 -28 -3 -54 -21 -54 -9 0 -14 11 -14 31 0 34 -14 53 -48 63 -12 4
-22 12 -22 17 0 5 -7 9 -15 9 -10 0 -15 11 -15 35 0 19 -4 35 -10 35 -5 0 -10
-7 -10 -16 0 -11 -8 -14 -27 -12 -24 3 -28 9 -38 53 -8 40 -14 51 -33 53 -14
2 -22 10 -22 22 0 31 -18 33 -23 3 l-4 -28 -2 28 c-1 22 -6 27 -26 27 -18 0
-25 5 -25 20 0 11 -6 20 -14 20 -18 0 -47 40 -39 53 4 6 -8 7 -31 3 -32 -6
-36 -5 -36 14 0 30 -68 92 -92 85 -14 -5 -16 -2 -11 11 5 13 3 16 -10 11 -14
-5 -16 -2 -11 21 7 26 6 27 -13 10 -25 -23 -24 -23 -59 7 -16 14 -33 25 -39
25 -5 0 -4 4 4 9 9 6 11 15 6 27 -8 18 -8 18 -12 2 -6 -23 -12 -23 -34 3 -16
19 -16 23 -4 36 8 8 15 20 15 26 0 7 -4 6 -10 -3 -9 -13 -11 -13 -19 0 -6 8
-13 11 -18 7 -4 -5 -1 -13 7 -18 11 -8 12 -12 3 -15 -7 -3 -10 -11 -7 -18 5
-14 -52 -21 -60 -8 -3 5 6 7 20 4 24 -4 25 -3 14 17 -7 15 -17 20 -27 17 -13
-5 -14 -4 -4 8 7 8 19 12 27 9 16 -6 20 32 4 42 -5 3 -10 -1 -10 -10 0 -12 -6
-14 -27 -8 -16 4 -53 7 -85 6 -47 -1 -57 1 -61 18 -4 16 -2 17 15 8 25 -14 60
-3 38 12 -13 8 -13 10 0 19 12 8 12 12 2 18 -7 5 -11 15 -9 23 2 8 2 11 0 7
-7 -12 -43 -10 -43 2 0 6 -11 10 -25 10 -14 0 -25 -4 -25 -10 0 -5 -4 -10 -10
-10 -5 0 -10 15 -10 33 0 50 -19 63 -43 29 -15 -22 -17 -23 -12 -5 4 14 0 25
-11 31 -9 5 -19 24 -24 43 -5 21 -8 26 -9 13 -1 -12 -8 -27 -16 -34 -12 -10
-15 -7 -20 17 -12 51 -19 59 -23 26 -4 -39 -22 -45 -22 -8 0 14 -4 25 -10 25
-14 0 -12 37 3 44 6 3 3 4 -9 1 -12 -3 -27 1 -34 10 -7 8 -9 15 -5 15 4 0 2 7
-5 15 -9 10 -9 15 -1 15 6 0 11 9 11 20 0 11 -4 20 -10 20 -5 0 -11 -9 -11
-20 -2 -33 -4 -38 -11 -46 -5 -4 -8 0 -8 9 0 9 -7 17 -15 17 -8 0 -15 9 -15
20 0 11 -5 20 -11 20 -6 0 -10 -15 -9 -32 3 -51 1 -58 -15 -58 -18 0 -20 31
-3 48 6 6 8 15 4 19 -4 4 -11 1 -16 -7 -7 -10 -10 -11 -10 -2 0 17 -27 15 -34
-3 -3 -8 -10 -15 -16 -15 -5 0 -10 7 -10 15 0 8 7 15 15 15 8 0 15 6 15 14 0
17 27 29 35 15 4 -5 11 -7 16 -3 5 3 0 17 -11 31 -11 14 -20 35 -20 46 0 20 0
20 -23 -1 -13 -12 -27 -19 -30 -15 -4 3 -4 -7 -1 -24 3 -18 1 -33 -5 -37 -7
-5 -11 2 -11 18 0 16 -6 26 -15 26 -8 0 -15 5 -15 11 0 17 -27 39 -49 39 -16
0 -21 6 -21 24 0 14 6 26 13 29 6 2 3 3 -9 1 -28 -5 -35 4 -22 30 8 16 8 18
-1 10 -13 -12 -81 4 -81 18 0 5 -12 8 -27 9 -25 0 -26 1 -8 9 18 8 17 9 -8 9
-24 1 -27 4 -25 31 1 17 6 30 10 30 12 0 10 58 -2 65 -6 4 -10 -7 -10 -26 0
-27 -2 -30 -15 -19 -12 10 -15 10 -15 -4 0 -12 -10 -16 -40 -16 -33 0 -40 3
-40 20 0 10 8 23 17 28 15 9 15 11 1 26 -9 9 -25 16 -35 16 -10 0 -29 7 -41
16 -12 8 -22 11 -22 5 0 -5 -21 -8 -47 -6 -44 3 -51 8 -136 94 l-90 92 -29
-27 c-27 -27 -28 -27 -48 -9 -28 25 -26 36 20 80 38 37 50 57 33 54 -36 -6
-53 3 -53 26 0 14 -4 25 -10 25 -5 0 -10 -11 -10 -25 0 -18 -5 -25 -20 -25
-24 0 -27 36 -5 66 8 10 15 21 15 24 0 3 -25 5 -55 6 -44 0 -58 4 -75 24 -11
13 -23 20 -28 15 -4 -4 -1 -10 6 -12 25 -9 11 -23 -23 -23 l-35 0 0 83 c0 45
-4 88 -8 95 -6 8 -39 13 -98 15 l-89 3 -2 88 c-2 49 -5 91 -7 93 -2 2 -56 6
-120 10 l-116 6 1 71 c1 39 3 62 6 51 7 -29 23 -43 23 -19 0 10 3 29 6 42 6
20 3 22 -40 22 -25 0 -46 5 -46 10 0 6 -11 10 -25 10 -18 0 -25 5 -25 19 0 22
-19 31 -66 31 -30 0 -34 3 -34 25 0 20 -5 25 -25 25 -20 0 -25 5 -25 25 0 19
-5 25 -21 25 -12 0 -23 8 -26 20 -4 14 -17 21 -49 26 -38 5 -44 10 -44 30 0
13 5 24 10 24 6 0 10 12 10 26 0 32 -22 27 -31 -7 l-6 -24 -5 25 c-5 23 -5 23
-7 3 -2 -31 -21 -29 -21 2 0 26 -18 33 -37 14 -8 -8 -13 -8 -17 0 -4 6 -16 11
-27 11 -13 0 -19 7 -19 24 0 39 -37 22 -45 -20 -5 -28 -10 -34 -30 -34 -16 0
-25 6 -25 15 0 8 7 15 15 15 8 0 15 9 15 20 0 11 -7 20 -15 20 -11 0 -15 11
-15 38 0 56 -11 112 -22 112 -6 0 -7 -20 -3 -50z m25 -120 c0 -15 -7 -20 -25
-20 -18 0 -25 5 -25 20 0 15 7 20 25 20 18 0 25 -5 25 -20z m-344 -17 c-10
-10 -19 5 -10 18 6 11 8 11 12 0 2 -7 1 -15 -2 -18z m224 -23 c0 -5 -7 -10
-15 -10 -8 0 -15 5 -15 10 0 6 7 10 15 10 8 0 15 -4 15 -10z m113 -37 c-7 -2
-19 -2 -25 0 -7 3 -2 5 12 5 14 0 19 -2 13 -5z m144 1 c-3 -3 -12 -4 -19 -1
-8 3 -5 6 6 6 11 1 17 -2 13 -5z m-387 -14 c0 -5 -4 -10 -10 -10 -5 0 -10 5
-10 10 0 6 5 10 10 10 6 0 10 -4 10 -10z m243 -17 c-7 -2 -19 -2 -25 0 -7 3
-2 5 12 5 14 0 19 -2 13 -5z m-163 -32 c0 -11 3 -26 6 -35 3 -9 1 -16 -5 -16
-6 0 -11 9 -11 19 0 11 -4 23 -10 26 -15 9 -12 25 5 25 8 0 15 -9 15 -19z
m287 -3 c-3 -8 -6 -5 -6 6 -1 11 2 17 5 13 3 -3 4 -12 1 -19z m-40 -10 c-3 -8
-6 -5 -6 6 -1 11 2 17 5 13 3 -3 4 -12 1 -19z m120 0 c-3 -8 -6 -5 -6 6 -1 11
2 17 5 13 3 -3 4 -12 1 -19z m93 -18 c0 -5 -9 -10 -20 -10 -11 0 -20 5 -20 10
0 6 9 10 20 10 11 0 20 -4 20 -10z m-347 -17 c-7 -2 -19 -2 -25 0 -7 3 -2 5
12 5 14 0 19 -2 13 -5z m275 -48 c-3 -3 -9 2 -12 12 -6 14 -5 15 5 6 7 -7 10
-15 7 -18z m-368 11 c0 -3 -4 -8 -10 -11 -5 -3 -10 -1 -10 4 0 6 5 11 10 11 6
0 10 -2 10 -4z m55 -14 c-3 -3 -11 0 -18 7 -9 10 -8 11 6 5 10 -3 15 -9 12
-12z m65 -89 c0 -32 -13 -22 -18 13 -2 16 1 23 8 19 5 -3 10 -18 10 -32z m567
-75 c-3 -7 -5 -2 -5 12 0 14 2 19 5 13 2 -7 2 -19 0 -25z m-482 -18 c3 -5 1
-10 -4 -10 -6 0 -11 5 -11 10 0 6 2 10 4 10 3 0 8 -4 11 -10z m702 -132 c-3
-7 -5 -2 -5 12 0 14 2 19 5 13 2 -7 2 -19 0 -25z m72 -10 c0 -16 -2 -18 -6 -8
-3 8 -11 18 -17 22 -7 5 -4 8 7 8 11 0 17 -7 16 -22z m433 -666 c-78 -75 -88
-102 -57 -161 17 -33 33 -41 84 -41 29 0 44 7 71 35 40 41 48 43 56 11 14 -58
-54 -116 -136 -116 -100 0 -175 94 -155 198 5 27 26 56 83 114 l76 79 25 -25
24 -25 -71 -69z m210 -91 c26 -41 27 -114 4 -160 -19 -35 -36 -39 -60 -13 -15
17 -15 21 0 51 24 47 11 78 -64 153 l-66 67 24 26 24 25 59 -57 c32 -32 68
-73 79 -92z m511 -227 c-3 -8 0 -14 6 -14 6 0 11 -7 11 -15 0 -8 -4 -15 -10
-15 -5 0 -10 5 -10 11 0 6 -7 17 -15 26 -17 17 -11 35 10 27 7 -3 11 -12 8
-20z m95 -75 c-2 -6 -8 -10 -13 -10 -5 0 -11 4 -13 10 -2 6 4 11 13 11 9 0 15
-5 13 -11z m219 -155 c-3 -3 -12 -4 -19 -1 -8 3 -5 6 6 6 11 1 17 -2 13 -5z
m793 -569 c0 -8 5 -15 12 -15 6 0 9 -2 6 -5 -3 -3 -13 -3 -22 1 -17 7 -22 34
-6 34 6 0 10 -7 10 -15z m-1244 -72 c-4 -5 -14 1 -22 11 -21 30 -17 39 8 16
12 -11 18 -23 14 -27z m1339 -32 c3 -5 1 -12 -5 -16 -5 -3 -10 1 -10 9 0 18 6
21 15 7z m-1676 -211 c41 -38 79 -66 84 -63 6 3 7 1 4 -4 -4 -6 8 -22 26 -36
61 -47 149 -135 140 -140 -5 -3 -33 17 -63 44 -30 28 -71 62 -90 76 -19 14
-56 47 -81 72 -26 25 -56 53 -68 61 -11 8 -21 20 -21 27 0 7 -4 13 -10 13 -5
0 -10 5 -10 10 0 19 16 9 89 -60z m552 57 c-1 -4 14 -21 32 -39 17 -17 24 -28
15 -25 -11 4 -21 0 -27 -11 -5 -9 -13 -13 -17 -9 -5 5 -2 12 6 18 13 8 13 11
-1 22 -18 14 -33 60 -17 55 5 -2 9 -7 9 -11z m86 -89 c-3 -8 -6 -5 -6 6 -1 11
2 17 5 13 3 -3 4 -12 1 -19z m-22 -18 c8 -13 -15 -13 -35 0 -12 8 -11 10 7 10
12 0 25 -4 28 -10z m90 -40 c3 -6 -4 -10 -17 -10 -17 0 -24 6 -24 19 0 15 4
17 18 10 9 -5 20 -14 23 -19z m-138 -6 c-9 -9 -28 6 -21 18 4 6 10 6 17 -1 6
-6 8 -13 4 -17z m66 -1 c-7 -2 -19 -2 -25 0 -7 3 -2 5 12 5 14 0 19 -2 13 -5z
m1567 -113 c0 -5 -2 -10 -4 -10 -3 0 -8 5 -11 10 -3 6 -1 10 4 10 6 0 11 -4
11 -10z m-1325 -20 c3 -5 1 -10 -4 -10 -6 0 -11 5 -11 10 0 6 2 10 4 10 3 0 8
-4 11 -10z m1512 -116 c-3 -3 -12 -4 -19 -1 -8 3 -5 6 6 6 11 1 17 -2 13 -5z
m303 -279 c0 -8 -4 -15 -10 -15 -5 0 -10 7 -10 15 0 8 5 15 10 15 6 0 10 -7
10 -15z m-1780 -157 c0 -5 -11 -1 -24 9 -13 10 -22 22 -19 26 6 9 43 -21 43
-35z m50 -43 c0 -3 -9 0 -20 7 -11 7 -20 18 -20 25 0 8 8 5 20 -7 11 -11 20
-22 20 -25z m54 -30 c11 -8 18 -17 15 -19 -2 -3 -15 4 -29 14 -14 11 -20 20
-15 19 6 0 19 -6 29 -14z m136 -115 c0 -5 -7 -7 -15 -4 -8 4 -15 8 -15 10 0 2
7 4 15 4 8 0 15 -4 15 -10z m25 -20 c3 -5 1 -10 -4 -10 -6 0 -11 5 -11 10 0 6
2 10 4 10 3 0 8 -4 11 -10z m80 -56 c13 -8 26 -22 29 -30 4 -11 -3 -9 -24 6
-48 34 -53 56 -5 24z m110 -94 c3 -5 1 -10 -4 -10 -6 0 -11 5 -11 10 0 6 2 10
4 10 3 0 8 -4 11 -10z m30 -20 c3 -5 1 -10 -4 -10 -6 0 -11 5 -11 10 0 6 2 10
4 10 3 0 8 -4 11 -10z m1815 -28 c65 -35 63 -43 -25 -132 -44 -44 -86 -79 -94
-78 -8 2 -19 11 -25 20 -9 15 -1 27 48 77 52 53 56 60 38 65 -30 10 -67 -2
-93 -30 -32 -34 -31 -97 2 -129 58 -56 159 -20 159 57 1 33 29 78 49 78 15 0
24 -45 18 -91 -11 -81 -101 -150 -179 -135 -101 19 -162 121 -127 213 12 33
56 82 84 93 36 15 109 11 145 -8z m-1706 -54 c28 -29 13 -32 -18 -3 -15 14
-31 25 -37 25 -5 0 -9 5 -9 10 0 14 38 -6 64 -32z m86 -68 c0 -5 -2 -10 -4
-10 -3 0 -8 5 -11 10 -3 6 -1 10 4 10 6 0 11 -4 11 -10z m30 -31 c0 -6 -4 -7
-10 -4 -5 3 -10 11 -10 16 0 6 5 7 10 4 6 -3 10 -11 10 -16z m1283 -37 c15
-16 15 -21 2 -38 -8 -10 -15 -34 -15 -52 0 -28 11 -45 65 -101 36 -37 65 -72
65 -78 0 -5 -8 -17 -19 -27 -17 -16 -21 -13 -89 58 -75 79 -91 115 -78 178 7
35 32 78 45 78 4 0 15 -8 24 -18z m787 -96 c0 -3 -4 -8 -10 -11 -5 -3 -10 -1
-10 4 0 6 5 11 10 11 6 0 10 -2 10 -4z m-990 -145 l-74 -81 -23 22 -24 22 78
78 c76 77 78 78 97 59 19 -19 18 -21 -54 -100z m118 -84 l83 -83 -21 -19 c-21
-19 -21 -18 -105 65 -79 79 -83 85 -68 102 9 10 19 18 22 18 4 0 44 -37 89
-83z m1339 -1379 c28 -31 -1 -18 -42 18 -39 35 -39 35 -7 17 18 -10 40 -26 49
-35z m173 -125 c0 -8 -50 22 -54 33 -3 9 7 5 24 -8 17 -12 30 -23 30 -25z"/>
<path d="M6200 9925 c0 -8 -4 -15 -10 -15 -15 0 -12 -39 4 -56 17 -16 56 -19
56 -4 0 6 -11 10 -25 10 -20 0 -25 5 -25 25 0 20 5 25 25 25 16 0 25 6 25 15
0 9 -9 15 -25 15 -16 0 -25 -6 -25 -15z"/>
<path d="M6368 9863 c7 -3 16 -2 19 1 4 3 -2 6 -13 5 -11 0 -14 -3 -6 -6z"/>
<path d="M5331 9704 c0 -11 3 -14 6 -6 3 7 2 16 -1 19 -3 4 -6 -2 -5 -13z"/>
<path d="M6520 9685 c0 -8 5 -15 10 -15 6 0 10 7 10 15 0 8 -4 15 -10 15 -5 0
-10 -7 -10 -15z"/>
<path d="M6620 9645 c0 -8 -7 -15 -15 -15 -10 0 -15 -9 -14 -27 2 -24 2 -25 6
-5 2 12 8 22 13 22 5 0 11 -10 13 -22 3 -16 4 -14 2 5 -1 15 2 27 7 27 4 0 8
7 8 15 0 8 -4 15 -10 15 -5 0 -10 -7 -10 -15z"/>
<path d="M5380 9636 c0 -11 30 -39 36 -34 2 3 -5 13 -16 23 -11 10 -20 15 -20
11z"/>
<path d="M6681 9554 c0 -11 3 -14 6 -6 3 7 2 16 -1 19 -3 4 -6 -2 -5 -13z"/>
<path d="M5473 9513 c0 -10 6 -24 14 -31 14 -15 16 -9 7 26 -7 26 -21 29 -21
5z"/>
<path d="M5510 9480 c0 -5 5 -10 11 -10 5 0 7 5 4 10 -3 6 -8 10 -11 10 -2 0
-4 -4 -4 -10z"/>
<path d="M5523 9446 c0 -19 64 -82 74 -72 4 3 -11 25 -33 47 -26 25 -41 35
-41 25z"/>
<path d="M5607 9353 c-4 -3 -7 -11 -7 -17 0 -6 5 -5 12 2 6 6 9 14 7 17 -3 3
-9 2 -12 -2z"/>
<path d="M5620 9320 c0 -5 3 -10 8 -10 4 0 15 -12 24 -27 10 -16 17 -21 17
-13 0 15 -32 60 -43 60 -3 0 -6 -4 -6 -10z"/>
<path d="M7032 9300 c0 -14 2 -19 5 -12 2 6 2 18 0 25 -3 6 -5 1 -5 -13z"/>
<path d="M5580 9230 c17 -22 34 -40 37 -40 2 0 -10 18 -27 40 -17 22 -34 40
-37 40 -2 0 10 -18 27 -40z"/>
<path d="M5708 9224 c-3 -5 7 -22 23 -39 16 -16 29 -25 29 -20 0 17 -46 69
-52 59z"/>
<path d="M7080 9214 c0 -8 5 -12 10 -9 6 3 10 10 10 16 0 5 -4 9 -10 9 -5 0
-10 -7 -10 -16z"/>
<path d="M5654 9138 c21 -27 40 -48 43 -48 9 0 -18 37 -48 65 -31 29 -31 28 5
-17z"/>
<path d="M7098 9173 c6 -2 18 -2 25 0 6 3 1 5 -13 5 -14 0 -19 -2 -12 -5z"/>
<path d="M7061 9154 c0 -11 3 -14 6 -6 3 7 2 16 -1 19 -3 4 -6 -2 -5 -13z"/>
<path d="M5770 9140 c0 -16 41 -70 72 -98 15 -13 27 -27 25 -31 -3 -14 66
-101 80 -101 7 0 13 -4 13 -8 0 -4 27 -38 61 -75 34 -37 71 -82 83 -99 20 -31
46 -48 46 -31 0 4 -19 28 -41 53 -23 25 -75 88 -117 140 -42 52 -86 106 -99
120 -50 56 -75 86 -91 113 -17 27 -32 36 -32 17z"/>
<path d="M7250 8960 c0 -11 5 -20 10 -20 6 0 10 9 10 20 0 11 -4 20 -10 20 -5
0 -10 -9 -10 -20z"/>
<path d="M6157 8683 c-4 -3 -7 -11 -7 -17 0 -6 5 -5 12 2 6 6 9 14 7 17 -3 3
-9 2 -12 -2z"/>
<path d="M6070 8654 c0 -4 27 -36 61 -71 33 -34 59 -59 57 -54 -5 13 -118 133
-118 125z"/>
<path d="M6180 8643 c0 -9 3 -13 7 -10 3 4 17 -5 30 -19 35 -38 37 -25 2 14
-33 36 -39 39 -39 15z"/>
<path d="M7870 8610 c0 -5 5 -10 11 -10 5 0 7 5 4 10 -3 6 -8 10 -11 10 -2 0
-4 -4 -4 -10z"/>
<path d="M6250 8575 c0 -5 43 -55 96 -110 53 -55 92 -93 88 -85 -4 8 -24 33
-44 55 -21 22 -60 65 -88 95 -29 30 -52 51 -52 45z"/>
<path d="M7795 8537 c-4 -10 -5 -21 -1 -24 10 -10 18 4 13 24 -4 17 -4 17 -12
0z"/>
<path d="M7873 8533 c9 -2 23 -2 30 0 6 3 -1 5 -18 5 -16 0 -22 -2 -12 -5z"/>
<path d="M7740 8520 c0 -5 5 -10 10 -10 6 0 10 5 10 10 0 6 -4 10 -10 10 -5 0
-10 -4 -10 -10z"/>
<path d="M6200 8506 c0 -2 8 -10 18 -17 15 -13 16 -12 3 4 -13 16 -21 21 -21
13z"/>
<path d="M7873 8503 c9 -2 23 -2 30 0 6 3 -1 5 -18 5 -16 0 -22 -2 -12 -5z"/>
<path d="M7968 8463 c7 -3 16 -2 19 1 4 3 -2 6 -13 5 -11 0 -14 -3 -6 -6z"/>
<path d="M6315 8378 c186 -194 401 -408 409 -408 8 0 -190 205 -403 416 -88
87 -92 81 -6 -8z"/>
<path d="M8060 8440 c0 -6 9 -20 20 -32 17 -19 20 -19 20 -5 0 9 -4 17 -10 17
-5 0 -10 7 -10 15 0 8 -4 15 -10 15 -5 0 -10 -5 -10 -10z"/>
<path d="M8038 8363 c7 -3 16 -2 19 1 4 3 -2 6 -13 5 -11 0 -14 -3 -6 -6z"/>
<path d="M6452 8342 c18 -25 114 -110 103 -92 -13 22 -99 110 -108 110 -5 0
-2 -8 5 -18z"/>
<path d="M6582 8214 c10 -10 20 -15 24 -12 3 4 -5 12 -18 18 -22 12 -22 12 -6
-6z"/>
<path d="M8250 8204 c0 -8 5 -12 10 -9 6 3 10 10 10 16 0 5 -4 9 -10 9 -5 0
-10 -7 -10 -16z"/>
<path d="M6636 8156 c3 -8 12 -17 20 -20 11 -4 12 -2 1 14 -14 23 -29 27 -21
6z"/>
<path d="M6675 8070 c3 -5 8 -10 11 -10 2 0 4 5 4 10 0 6 -5 10 -11 10 -5 0
-7 -4 -4 -10z"/>
<path d="M6720 8041 c0 -5 9 -11 19 -14 14 -3 18 -1 14 9 -6 15 -33 19 -33 5z"/>
<path d="M8592 7935 c0 -16 2 -22 5 -12 2 9 2 23 0 30 -3 6 -5 -1 -5 -18z"/>
<path d="M6818 7943 c7 -3 16 -2 19 1 4 3 -2 6 -13 5 -11 0 -14 -3 -6 -6z"/>
<path d="M8716 7891 c-5 -7 -3 -18 3 -24 14 -14 20 -6 11 17 -5 15 -9 16 -14
7z"/>
<path d="M7561 7634 c0 -11 3 -14 6 -6 3 7 2 16 -1 19 -3 4 -6 -2 -5 -13z"/>
<path d="M7705 7550 c-4 -16 -4 -34 0 -40 9 -15 25 -2 18 15 -3 10 2 15 16 15
24 0 28 25 5 34 -27 10 -32 7 -39 -24z"/>
<path d="M9107 7555 c6 -17 25 -15 31 3 2 7 -5 12 -17 12 -14 0 -19 -5 -14
-15z"/>
<path d="M7820 7480 c0 -5 5 -10 10 -10 6 0 10 5 10 10 0 6 -4 10 -10 10 -5 0
-10 -4 -10 -10z"/>
<path d="M7729 7451 c8 -5 10 -14 6 -22 -6 -11 -5 -11 5 -2 14 12 6 33 -13 33
-8 0 -7 -3 2 -9z"/>
<path d="M7875 7440 c-3 -5 -1 -10 4 -10 6 0 11 5 11 10 0 6 -2 10 -4 10 -3 0
-8 -4 -11 -10z"/>
<path d="M7990 7290 c0 -5 4 -10 10 -10 5 0 8 -6 6 -12 -1 -7 -1 -10 1 -5 3 4
11 7 18 7 7 0 15 7 19 15 4 11 -2 15 -24 15 -17 0 -30 -4 -30 -10z"/>
<path d="M7890 7271 c0 -5 5 -13 10 -16 6 -3 10 -2 10 4 0 5 -4 13 -10 16 -5
3 -10 2 -10 -4z"/>
<path d="M7982 7250 c0 -14 2 -19 5 -12 2 6 2 18 0 25 -3 6 -5 1 -5 -13z"/>
<path d="M8085 7070 c3 -5 10 -10 16 -10 5 0 9 5 9 10 0 6 -7 10 -16 10 -8 0
-12 -4 -9 -10z"/>
<path d="M9890 6904 c0 -22 2 -24 14 -14 8 6 12 18 9 26 -9 23 -23 16 -23 -12z"/>
<path d="M8380 6750 c0 -5 5 -10 10 -10 6 0 10 5 10 10 0 6 -4 10 -10 10 -5 0
-10 -4 -10 -10z"/>
<path d="M8717 6379 c7 -7 15 -10 18 -7 3 3 -2 9 -12 12 -14 6 -15 5 -6 -5z"/>
<path d="M11330 5734 c0 -8 5 -12 10 -9 6 4 8 11 5 16 -9 14 -15 11 -15 -7z"/>
<path d="M10130 5216 c0 -3 5 -16 11 -29 13 -30 48 -50 76 -45 17 2 10 10 -33
41 -30 21 -54 36 -54 33z"/>
<path d="M11910 5140 c0 -5 5 -10 11 -10 5 0 7 5 4 10 -3 6 -8 10 -11 10 -2 0
-4 -4 -4 -10z"/>
<path d="M12320 4600 c0 -5 5 -10 11 -10 5 0 7 5 4 10 -3 6 -8 10 -11 10 -2 0
-4 -4 -4 -10z"/>
</g>
</svg>
