<?xml version="1.0" standalone="no"?>
<!DOCTYPE svg PUBLIC "-//W3C//DTD SVG 20010904//EN"
 "http://www.w3.org/TR/2001/REC-SVG-20010904/DTD/svg10.dtd">
<svg version="1.0" xmlns="http://www.w3.org/2000/svg"
 width="499.000000pt" height="499.000000pt" viewBox="0 0 499.000000 499.000000"
 preserveAspectRatio="xMidYMid meet">

<g transform="translate(0.000000,499.000000) scale(0.100000,-0.100000)"
fill="#000000" stroke="none">
<path d="M1598 4183 c23 -2 61 -2 85 0 23 2 4 4 -43 4 -47 0 -66 -2 -42 -4z"/>
<path d="M3245 4183 c-16 -3 -34 -9 -40 -14 -6 -6 4 -7 25 -2 19 5 89 8 155 7
81 0 107 2 80 7 -42 8 -169 9 -220 2z"/>
<path d="M3125 4160 c-27 -7 -27 -8 -5 -8 14 0 36 4 50 8 20 6 21 8 5 8 -11 0
-33 -4 -50 -8z"/>
<path d="M3510 4166 c0 -2 9 -6 20 -9 11 -3 20 -1 20 4 0 5 -9 9 -20 9 -11 0
-20 -2 -20 -4z"/>
<path d="M3020 4127 c-67 -27 -97 -44 -89 -51 3 -3 23 3 44 14 22 11 45 20 52
20 7 0 13 4 13 8 0 5 12 13 28 19 15 6 23 11 17 11 -5 1 -35 -9 -65 -21z"/>
<path d="M2044 4086 c11 -9 27 -16 35 -15 14 0 14 1 1 6 -8 3 -24 10 -35 15
-20 9 -20 9 -1 -6z"/>
<path d="M2882 4060 c-12 -12 -22 -18 -22 -15 0 3 -27 -13 -60 -35 -36 -24
-58 -46 -54 -52 4 -6 3 -8 -3 -5 -14 9 -55 -22 -47 -35 4 -6 2 -8 -3 -5 -12 8
-111 -94 -164 -167 -31 -44 -34 -46 -47 -29 -7 10 -18 17 -23 15 -6 -1 -8 2
-5 7 4 5 -8 27 -26 48 -92 110 -195 203 -195 178 0 -8 5 -13 11 -12 6 1 10 -4
8 -11 -1 -8 2 -11 7 -8 5 3 24 -12 41 -34 17 -22 35 -38 40 -35 4 3 7 -3 6
-13 0 -9 5 -16 12 -14 6 1 11 -4 10 -10 -2 -7 2 -12 9 -11 7 2 10 -4 7 -12 -4
-8 -2 -15 3 -15 10 0 45 -65 48 -90 1 -8 9 -42 18 -75 8 -33 18 -80 22 -105
14 -98 28 -106 45 -25 6 30 16 57 21 60 5 4 9 19 9 35 0 16 6 44 14 62 8 18
22 50 31 71 9 21 17 47 18 57 1 11 8 20 16 20 8 0 12 2 9 5 -3 3 13 25 36 50
69 74 90 100 88 108 -1 4 5 7 13 7 8 0 15 5 15 11 0 5 5 7 10 4 6 -3 10 -2 10
2 0 5 10 14 23 19 12 6 15 8 7 6 -28 -6 25 30 63 44 9 3 17 10 17 15 0 15 -15
10 -38 -11z"/>
<path d="M2130 4042 c0 -4 10 -13 23 -21 22 -14 22 -14 3 8 -20 22 -26 25 -26
13z"/>
<path d="M2186 4001 c-4 -5 -2 -12 4 -16 5 -3 10 -3 10 2 0 4 5 1 10 -7 5 -8
10 -10 10 -4 0 17 -27 37 -34 25z"/>
<path d="M4301 3435 c1 -19 18 -51 18 -35 0 8 -4 22 -9 30 -5 8 -9 11 -9 5z"/>
<path d="M671 3404 c0 -11 3 -14 6 -6 3 7 2 16 -1 19 -3 4 -6 -2 -5 -13z"/>
<path d="M4321 3334 c0 -11 3 -14 6 -6 3 7 2 16 -1 19 -3 4 -6 -2 -5 -13z"/>
<path d="M4343 3225 c0 -22 2 -30 4 -17 2 12 2 30 0 40 -3 9 -5 -1 -4 -23z"/>
<path d="M3950 3160 c-13 -9 -13 -10 0 -10 12 -1 11 -4 -3 -15 -11 -7 -25 -11
-33 -8 -9 3 -14 -2 -14 -16 0 -14 -6 -21 -20 -21 -13 0 -20 7 -20 20 0 11 -4
20 -10 20 -5 0 -10 -6 -10 -14 0 -8 -9 -18 -20 -21 -11 -3 -20 -11 -20 -16 0
-5 -15 -9 -34 -9 -37 0 -46 -16 -53 -90 -1 -19 -4 -51 -6 -70 -2 -19 -8 -44
-14 -55 -6 -11 -14 -57 -18 -102 -4 -46 -10 -83 -14 -83 -4 0 -12 -13 -18 -30
-9 -24 -17 -30 -42 -30 -17 0 -31 -4 -31 -10 0 -5 11 -10 25 -10 26 0 30 -9
16 -38 -4 -9 -14 -33 -21 -52 -43 -123 -48 -135 -53 -109 -4 22 -5 22 -12 -8
-4 -18 -11 -33 -15 -33 -4 0 -15 -19 -24 -42 -10 -24 -24 -56 -31 -73 -7 -16
-14 -50 -14 -75 -1 -24 -6 -47 -10 -50 -13 -8 -41 -67 -41 -86 0 -14 4 -13 20
6 32 37 34 16 3 -49 -19 -41 -36 -64 -55 -72 -14 -6 -32 -24 -38 -39 -7 -16
-18 -31 -26 -34 -8 -3 -14 -15 -14 -26 0 -18 -6 -20 -83 -20 -71 0 -87 -3
-102 -20 -18 -20 -17 -20 29 -20 44 0 46 -1 36 -20 -6 -11 -17 -20 -25 -20 -8
0 -15 -9 -15 -20 0 -17 -7 -20 -40 -20 l-40 0 0 40 c0 22 -2 40 -5 40 -4 0
-20 -7 -38 -17 -28 -14 -29 -17 -13 -23 17 -6 16 -8 -7 -23 -15 -9 -44 -17
-66 -17 -33 0 -39 3 -36 18 2 10 -5 24 -15 30 -24 15 -35 -1 -15 -21 8 -9 15
-19 15 -24 0 -9 -115 -78 -147 -87 -11 -4 -24 -13 -27 -21 -3 -8 -15 -15 -26
-15 -11 0 -20 -4 -20 -10 0 -5 -18 -10 -41 -10 -29 0 -38 3 -33 13 6 10 4 10
-7 0 -16 -15 -75 -17 -84 -3 -3 6 -22 10 -41 10 -19 0 -34 5 -34 10 0 6 -7 10
-16 10 -23 0 -60 46 -56 70 0 3 -10 10 -24 17 -20 9 -24 8 -24 -4 0 -12 -2
-12 -15 1 -9 8 -21 13 -28 10 -15 -5 -54 33 -44 43 4 3 7 1 7 -5 0 -7 7 -12
15 -12 23 0 18 14 -16 51 -21 23 -33 29 -38 21 -5 -9 -16 -5 -37 15 -26 24
-27 26 -6 21 31 -9 27 6 -10 38 -36 30 -68 76 -68 99 0 8 -9 15 -20 15 -11 0
-27 12 -36 26 -18 27 -26 94 -11 94 10 0 -1 76 -15 103 -7 15 -12 16 -24 6
-22 -18 -18 -66 6 -72 26 -7 26 -23 0 -30 -15 -4 -20 0 -20 14 0 14 -7 19 -30
19 -27 0 -30 3 -30 34 0 19 -2 40 -3 48 -2 7 -2 10 0 6 3 -5 13 -8 23 -8 10 0
20 -6 23 -12 9 -25 13 -2 9 45 -4 46 -5 47 -37 47 -19 0 -37 5 -40 10 -3 6 1
10 9 10 9 0 16 5 16 10 0 6 7 10 15 10 8 0 15 9 15 20 0 11 -7 20 -15 20 -10
0 -15 10 -15 34 0 72 -19 137 -48 165 -27 24 -29 30 -22 79 5 45 4 53 -12 58
-10 3 -18 10 -18 15 0 5 -7 9 -15 9 -9 0 -20 11 -25 24 -5 13 -14 27 -20 31
-6 4 -15 18 -20 31 -6 14 -18 28 -27 32 -37 16 -91 54 -97 67 -3 8 -12 15 -21
15 -8 0 -15 7 -15 15 0 11 -11 15 -40 15 -22 0 -40 5 -40 10 0 6 -22 10 -49
10 -31 0 -55 6 -65 15 -18 19 -46 20 -46 2 0 -15 -67 -50 -80 -42 -4 3 -10 -2
-14 -10 -3 -8 -1 -15 4 -15 18 0 10 -47 -10 -65 -13 -12 -20 -31 -20 -57 0
-21 -5 -38 -10 -38 -7 0 -7 -6 0 -19 13 -24 -17 -62 -31 -40 -16 26 -21 -2
-26 -131 -4 -123 -3 -132 14 -128 10 2 20 15 24 33 l7 30 1 -32 c1 -23 -4 -33
-19 -38 -15 -5 -20 -15 -20 -41 0 -19 5 -34 10 -34 6 0 10 -31 10 -74 0 -40 7
-93 15 -117 9 -25 12 -45 6 -48 -5 -3 6 -32 25 -64 19 -32 34 -67 34 -77 0
-11 5 -20 10 -20 6 0 10 -7 10 -15 0 -15 6 -24 36 -58 6 -7 9 -18 6 -26 -3 -8
0 -11 5 -8 5 3 9 -6 8 -21 0 -20 -5 -27 -18 -25 -10 0 -15 -2 -12 -5 4 -4 17
-7 28 -7 17 0 21 -5 20 -22 -3 -23 82 -107 98 -97 5 3 8 0 7 -8 -2 -7 3 -12
10 -10 8 1 11 -1 8 -6 -2 -4 -1 -14 4 -22 7 -12 11 -12 27 1 16 12 17 12 6 -2
-10 -13 -6 -21 24 -50 20 -19 41 -33 45 -31 5 1 11 -5 14 -13 3 -8 11 -12 17
-8 5 3 7 1 3 -5 -5 -9 107 -110 226 -205 16 -12 40 -32 55 -45 175 -146 646
-467 668 -454 5 3 88 57 183 119 245 160 480 336 474 355 -1 5 2 7 7 4 5 -4
22 6 38 20 15 15 19 20 8 13 -18 -12 -19 -12 -8 2 10 12 10 18 0 29 -10 12 -9
12 5 1 19 -14 53 -7 43 9 -3 5 -1 10 5 10 6 0 8 5 4 12 -4 6 -3 8 4 4 6 -3 13
-2 17 4 4 6 12 7 18 3 7 -4 6 0 -2 10 -7 9 -10 17 -7 17 4 0 1 10 -5 23 -10
19 -10 20 2 11 14 -12 54 -13 65 -2 3 4 -5 5 -19 4 -19 -2 -23 1 -19 16 5 22
38 42 53 32 8 -4 7 0 0 15 -8 13 -8 21 -2 21 6 0 13 11 17 25 3 13 9 24 13 23
16 -2 71 15 71 23 0 5 -8 6 -17 2 -11 -4 -15 -2 -10 3 11 12 57 13 57 1 0 -6
11 7 25 27 28 41 32 54 12 38 -10 -8 -13 -6 -13 9 0 11 5 18 12 15 8 -3 11 3
8 20 -2 13 0 24 6 24 6 0 8 -4 5 -10 -3 -5 1 -10 10 -10 12 0 15 -6 11 -22 -3
-13 -3 -17 0 -10 3 6 10 10 15 6 5 -3 9 -2 8 3 -4 22 3 33 20 33 11 0 23 5 26
10 4 7 -3 8 -21 4 -19 -5 -25 -4 -20 5 4 6 13 11 20 11 8 0 13 14 14 37 2 39
32 90 51 86 6 -2 11 1 11 6 0 5 9 11 20 14 11 3 20 13 20 24 1 10 16 36 35 57
l35 39 21 -24 c20 -24 20 -24 16 -2 -3 12 -2 21 2 20 3 -1 18 8 31 21 21 19
26 21 28 8 4 -21 18 -20 26 0 9 23 7 31 -3 15 -7 -10 -9 -6 -8 13 2 24 3 25
15 9 11 -16 16 -11 13 12 -1 6 6 1 14 -9 8 -11 15 -25 14 -30 0 -6 -3 -5 -6 2
-2 6 -9 10 -14 6 -15 -9 -10 -22 8 -20 19 3 53 42 53 62 0 8 5 14 11 14 5 0 7
5 4 10 -3 6 1 13 9 16 19 7 76 104 76 128 0 10 4 15 9 12 10 -7 24 22 16 34
-3 5 6 21 20 36 18 19 23 34 19 53 -4 17 -2 22 3 13 7 -9 13 -6 22 14 6 15 9
29 6 32 -3 3 -5 -1 -6 -9 0 -8 -4 -6 -9 6 -8 19 -8 19 -19 -5 l-12 -25 6 25
c2 14 5 29 5 33 0 5 5 5 10 2 6 -4 13 7 16 25 7 32 19 44 44 45 9 0 15 10 15
25 0 14 7 36 15 50 17 30 23 103 7 93 -5 -3 -8 -2 -4 3 3 5 8 70 12 144 3 74
9 146 12 160 6 22 7 23 14 5 7 -19 8 -18 8 3 1 13 -5 22 -14 22 -8 0 -15 -6
-15 -12 0 -10 -3 -9 -9 1 -5 8 -11 9 -15 3 -3 -5 -17 -7 -31 -4 -20 3 -23 7
-14 18 8 10 3 14 -27 20 -20 4 -45 15 -55 25 -15 15 -34 19 -84 19 -37 0 -65
4 -65 10 0 13 -30 13 -50 0z m-2270 -420 c0 -5 -2 -10 -4 -10 -3 0 -8 5 -11
10 -3 6 -1 10 4 10 6 0 11 -4 11 -10z m2596 -39 c18 14 19 0 2 -36 -6 -14 -20
-25 -32 -26 -12 0 -15 -3 -8 -6 6 -2 12 -9 12 -15 0 -7 -5 -6 -14 1 -11 10
-13 26 -7 64 0 5 6 5 11 2 6 -4 8 -10 5 -15 -3 -5 -1 -11 4 -14 6 -4 8 8 6 26
-2 18 -1 27 2 20 4 -10 8 -10 19 -1z m-3149 -153 c-2 -24 -4 -5 -4 42 0 47 2
66 4 43 2 -24 2 -62 0 -85z m3035 -130 c-3 -14 -2 -19 6 -14 7 4 12 4 12 -1
-1 -11 -26 -43 -33 -43 -8 0 -2 53 7 69 11 17 15 13 8 -11z m-2365 -35 c-3
-10 -5 -2 -5 17 0 19 2 27 5 18 2 -10 2 -26 0 -35z m2337 -59 c3 -8 2 -12 -4
-9 -6 3 -10 10 -10 16 0 14 7 11 14 -7z m-88 -126 c4 -7 3 -8 -4 -4 -7 4 -12
1 -12 -8 0 -10 6 -13 18 -10 15 5 15 4 -1 -6 -11 -7 -25 -27 -33 -46 -8 -19
-19 -34 -24 -34 -6 0 -3 11 5 24 9 13 15 28 14 32 -4 15 13 64 21 64 5 0 12
-5 16 -12z m-161 -98 c-3 -5 -12 -10 -18 -10 -7 0 -6 4 3 10 19 12 23 12 15 0z
m-185 -154 c0 -3 -4 -8 -10 -11 -5 -3 -10 -1 -10 4 0 6 5 11 10 11 6 0 10 -2
10 -4z m-1680 -27 c0 -11 -4 -17 -10 -14 -5 3 -10 13 -10 21 0 8 5 14 10 14 6
0 10 -9 10 -21z m35 -54 c14 -13 25 -30 25 -37 -1 -8 -5 -7 -14 5 -7 9 -18 17
-25 17 -6 0 -11 2 -11 4 0 2 -3 11 -6 20 -9 23 3 20 31 -9z m-728 -106 c-6
-10 -16 -19 -21 -19 -4 0 -3 7 4 15 6 8 9 19 5 24 -3 7 0 8 9 5 12 -5 13 -9 3
-25z m2278 21 c-3 -5 -10 -10 -16 -10 -5 0 -9 5 -9 10 0 6 7 10 16 10 8 0 12
-4 9 -10z m-2249 -40 c0 -12 -4 -16 -9 -11 -5 5 -6 14 -3 20 10 15 12 14 12
-9z m144 -114 c0 -2 -7 -7 -16 -10 -8 -3 -12 -2 -9 4 6 10 25 14 25 6z m960
-105 c0 -5 -9 -7 -20 -4 -11 3 -20 7 -20 9 0 2 9 4 20 4 11 0 20 -4 20 -9z
m-723 -156 c0 -8 -4 -12 -9 -9 -5 3 -6 10 -3 15 9 13 12 11 12 -6z"/>
<path d="M4320 3001 c0 -6 4 -13 10 -16 6 -3 7 1 4 9 -7 18 -14 21 -14 7z"/>
<path d="M4322 2940 c0 -19 2 -27 5 -17 2 9 2 25 0 35 -3 9 -5 1 -5 -18z"/>
<path d="M4342 2925 c0 -16 2 -22 5 -12 2 9 2 23 0 30 -3 6 -5 -1 -5 -18z"/>
<path d="M4217 2515 c-4 -8 -1 -17 5 -21 7 -4 8 -3 4 4 -4 7 -2 12 3 12 6 0
11 5 11 10 0 15 -17 12 -23 -5z"/>
<path d="M1886 2451 c-4 -7 -5 -15 -2 -18 9 -9 19 4 14 18 -4 11 -6 11 -12 0z"/>
<path d="M3944 2032 c2 -4 1 -14 -5 -22 -6 -10 -9 -11 -9 -2 0 15 -56 16 -66
1 -3 -6 -1 -15 6 -19 9 -6 10 -12 1 -26 -10 -18 -10 -18 -11 1 -1 20 -2 20 -9
0 -4 -10 -7 -29 -5 -41 1 -16 -2 -21 -12 -17 -8 3 -11 9 -8 14 3 5 -1 9 -9 9
-18 0 -43 -29 -49 -57 -5 -17 -2 -21 13 -18 30 6 79 48 79 67 0 11 4 17 9 14
12 -8 93 82 86 94 -3 6 -8 10 -11 10 -3 0 -3 -4 0 -8z m-24 -26 c0 -2 -9 -6
-20 -9 -11 -3 -20 -1 -20 4 0 5 9 9 20 9 11 0 20 -2 20 -4z m0 -19 c0 -2 -12
-14 -27 -28 -24 -22 -24 -13 0 19 8 11 27 17 27 9z m-124 -115 c-14 -14 -16
-14 -16 -1 0 20 23 44 29 28 2 -6 -4 -18 -13 -27z"/>
<path d="M1091 2017 c-8 -10 -7 -14 2 -14 8 0 14 6 14 14 0 7 -1 13 -2 13 -2
0 -8 -6 -14 -13z"/>
<path d="M1136 1942 c-3 -5 1 -9 9 -9 8 0 12 4 9 9 -3 4 -7 8 -9 8 -2 0 -6 -4
-9 -8z"/>
<path d="M1135 1911 c-3 -6 5 -15 17 -21 21 -10 21 -10 6 3 -10 8 -15 17 -11
20 3 4 4 7 0 7 -3 0 -8 -4 -12 -9z"/>
<path d="M1176 1871 c-3 -4 3 -16 14 -26 15 -13 22 -14 37 -5 17 11 17 11 -1
6 -20 -7 -49 11 -40 25 3 5 3 9 0 9 -3 0 -7 -4 -10 -9z"/>
<path d="M3680 1860 c0 -5 5 -10 11 -10 5 0 7 5 4 10 -3 6 -8 10 -11 10 -2 0
-4 -4 -4 -10z"/>
<path d="M3735 1831 c-3 -2 -5 -8 -5 -13 0 -13 36 -9 48 5 9 10 6 13 -14 13
-13 0 -27 -2 -29 -5z"/>
<path d="M3693 1788 c-8 -13 -9 -18 -12 -38 0 -5 -7 -10 -14 -10 -7 0 -18 -10
-26 -21 -10 -18 -15 -19 -22 -8 -7 11 -9 11 -9 -3 0 -10 -6 -18 -12 -18 -10 0
-9 -3 1 -9 10 -7 10 -10 1 -16 -7 -4 -16 -2 -20 4 -8 13 -22 0 -33 -32 -4 -11
-12 -15 -18 -11 -8 5 -9 3 -4 -6 4 -7 2 -16 -6 -21 -11 -6 -11 -9 -1 -9 19 0
103 81 95 93 -4 7 0 8 13 3 10 -4 15 -4 11 0 -4 4 8 18 26 31 17 13 32 29 32
36 0 6 10 16 22 23 13 6 20 14 16 17 -10 11 -31 8 -40 -5z m-113 -137 c0 -6
-4 -13 -10 -16 -5 -3 -10 1 -10 9 0 9 5 16 10 16 6 0 10 -4 10 -9z"/>
<path d="M2758 1673 c7 -3 16 -2 19 1 4 3 -2 6 -13 5 -11 0 -14 -3 -6 -6z"/>
<path d="M2684 1605 c-10 -14 -32 -28 -49 -31 -38 -7 -57 -24 -27 -24 22 0 57
16 77 35 22 22 37 45 28 45 -5 0 -18 -11 -29 -25z"/>
<path d="M3494 1565 c-4 -8 -11 -12 -17 -8 -6 4 -7 1 -3 -6 5 -8 3 -11 -7 -9
-9 2 -16 -1 -17 -7 -3 -19 -23 -36 -37 -31 -8 3 -11 1 -8 -4 10 -16 17 -12 70
35 27 25 44 45 37 45 -7 0 -15 -7 -18 -15z"/>
</g>
</svg>
