<?xml version="1.0" standalone="no"?>
<!DOCTYPE svg PUBLIC "-//W3C//DTD SVG 20010904//EN"
 "http://www.w3.org/TR/2001/REC-SVG-20010904/DTD/svg10.dtd">
<svg version="1.0" xmlns="http://www.w3.org/2000/svg"
 width="980.000000pt" height="980.000000pt" viewBox="0 0 980.000000 980.000000"
 preserveAspectRatio="xMidYMid meet">

<g transform="translate(0.000000,980.000000) scale(0.100000,-0.100000)"
fill="#000000" stroke="none">
<path d="M2735 9019 c-402 -19 -742 -110 -1112 -298 -499 -254 -886 -643
-1127 -1136 -229 -467 -297 -967 -205 -1504 130 -765 647 -1667 1483 -2591
169 -187 570 -588 806 -806 325 -302 772 -684 1220 -1045 267 -216 1077 -849
1093 -855 7 -2 73 44 147 103 74 59 322 253 550 432 820 641 1268 1021 1801
1527 698 663 1224 1295 1587 1906 302 508 475 954 544 1403 29 190 31 554 4
725 -125 797 -618 1469 -1349 1841 -456 232 -888 322 -1429 298 -821 -37
-1435 -415 -1789 -1103 -30 -58 -56 -106 -59 -106 -3 0 -23 34 -43 76 -139
281 -374 568 -602 737 -312 231 -726 373 -1144 392 -58 3 -133 7 -166 8 -33 2
-128 0 -210 -4z"/>
</g>
</svg>
